<?xml version="1.0" encoding="utf-8"?>
<!-- Generator: Adobe Illustrator 26.4.1, SVG Export Plug-In . SVG Version: 6.00 Build 0)  -->
<svg version="1.1" id="Layer_1" xmlns="http://www.w3.org/2000/svg" xmlns:xlink="http://www.w3.org/1999/xlink" x="0px" y="0px"
	 viewBox="0 0 225.6 96.7" style="enable-background:new 0 0 225.6 96.7;" xml:space="preserve">
<style type="text/css">
	.st0{fill:none;stroke:#68A8AD;stroke-width:2;stroke-miterlimit:10;}
	.st1{fill:none;stroke:#68A9AE;stroke-width:2;stroke-miterlimit:10;}
	.st2{fill:#68A9AE;stroke:#68A9AE;stroke-width:1.5;stroke-miterlimit:10;}
</style>
<g>
	<path class="st0" d="M87.2,12.9c7.4-1.8,15.1-0.7,22.6,0.3c6.5,0.9,13.1,1.8,19.6,2.7c3,0.4,6.1,0.9,8.9,2.3
		c2.6,1.4,4.7,3.6,6.5,5.9c8.6,11,12,27.3,4.4,39c-5.5,8.5-15.3,13-24.6,16.8c-11.4,4.7-24.4,9-35.5,3.8
		c-7.4-3.4-12.5-10.5-15.3-18.2s-3.5-15.9-4.2-24c-0.6-6.6-1.1-12.3,2.7-17.8C76,18.5,80.6,14.5,87.2,12.9z"/>
</g>
<g>
	<g>
		<path class="st1" d="M39.2,86.5V70.3H7.5V57.4l36.4-46.7h9.9v46.6h9.6v13h-9.6v16.2H39.2z M22,57.3h18.8V32.7L22,57.3z"/>
		<path class="st1" d="M191.9,86.5V70.3h-31.7V57.4l36.4-46.7h9.9v46.6h9.6v13h-9.6v16.2H191.9z M174.8,57.3h18.8V32.7L174.8,57.3z"
			/>
	</g>
</g>
<g>
	<path class="st2" d="M104.5,55.4c-0.3-1.9-0.3-3.7,0-5.3c0.4-1.6,1.4-3.2,3.2-4.7c0.5-0.5,1.2-1,2-1.6c0.8-0.6,1.5-1.3,2.2-2.1
		c0.7-0.8,1.3-1.6,1.7-2.6c0.4-0.9,0.5-2,0.3-3c-0.1-0.8-0.4-1.5-0.8-2.1c-0.4-0.6-0.9-1-1.5-1.4c-0.6-0.3-1.2-0.6-2-0.7
		c-0.7-0.1-1.4-0.1-2.1,0c-0.9,0.1-1.6,0.4-2.3,0.8c-0.7,0.4-1.2,0.9-1.7,1.4c-0.5,0.5-0.9,1.1-1.3,1.8c-0.4,0.6-0.6,1.2-0.9,1.8
		l-5.7-2.6c0.3-1.3,0.8-2.5,1.5-3.6c0.7-1.1,1.5-2,2.5-2.9c1-0.8,2-1.5,3.2-2.1c1.2-0.5,2.5-0.9,3.8-1.2c1.5-0.3,3-0.3,4.5-0.1
		c1.5,0.2,2.9,0.6,4.3,1.4c1.3,0.7,2.5,1.8,3.4,3.1c1,1.3,1.6,3,2,5.1c0.2,1.3,0.3,2.4,0.1,3.4c-0.1,1-0.4,2-0.8,2.8
		c-0.4,0.9-0.9,1.7-1.6,2.4c-0.6,0.8-1.4,1.5-2.2,2.3c-0.7,0.6-1.4,1.2-2.1,1.8c-0.7,0.6-1.3,1.2-1.9,1.8c-0.6,0.6-1,1.3-1.3,2.1
		c-0.3,0.8-0.4,1.6-0.2,2.6L104.5,55.4z M107,69l-1.4-8.1l6.5-1.1l1.4,8.1L107,69z"/>
</g>
</svg>
