<?xml version="1.0" encoding="utf-8"?>
<!-- Generator: Adobe Illustrator 26.2.1, SVG Export Plug-In . SVG Version: 6.00 Build 0)  -->
<svg version="1.1" id="Layer_1" xmlns="http://www.w3.org/2000/svg" xmlns:xlink="http://www.w3.org/1999/xlink" x="0px" y="0px"
	 viewBox="0 0 54.3 48.4" style="enable-background:new 0 0 54.3 48.4;" xml:space="preserve">
<style type="text/css">
	.st0{fill:#68A9AE;}
	.st1{clip-path:url(#SVGID_00000152951684857426125640000017133893474363475343_);}
	.st2{fill:#FFFFFF;}
</style>
<g>
	<circle id="Ellipse_46" class="st0" cx="27.1" cy="24.2" r="14"/>
	<g>
		<defs>
			<rect id="SVGID_1_" x="19.1" y="16.2" width="16" height="16"/>
		</defs>
		<clipPath id="SVGID_00000144338984536508899000000015496080556443065527_">
			<use xlink:href="#SVGID_1_"  style="overflow:visible;"/>
		</clipPath>
		<g id="Group_250" style="clip-path:url(#SVGID_00000144338984536508899000000015496080556443065527_);">
			<path id="Path_118" class="st2" d="M33.7,25.6H20.6c-0.8,0-1.5-0.6-1.5-1.4s0.6-1.5,1.4-1.5c0,0,0.1,0,0.1,0h13.1
				c0.8,0,1.5,0.6,1.5,1.4C35.2,24.9,34.6,25.6,33.7,25.6C33.7,25.6,33.7,25.6,33.7,25.6"/>
			<path id="Path_119" class="st2" d="M25.7,30.7V17.6c0-0.8,0.7-1.4,1.5-1.4c0.8,0,1.4,0.6,1.4,1.4v13.1c0,0.8-0.6,1.5-1.4,1.5
				C26.4,32.2,25.7,31.6,25.7,30.7C25.7,30.8,25.7,30.7,25.7,30.7"/>
		</g>
	</g>
</g>
</svg>
