<svg xmlns="http://www.w3.org/2000/svg" xmlns:xlink="http://www.w3.org/1999/xlink" width="215.127" height="216" viewBox="0 0 215.127 216">
  <defs>
    <clipPath id="clip-path">
      <rect id="Rectangle_785" data-name="Rectangle 785" width="215.127" height="216" fill="none"/>
    </clipPath>
    <clipPath id="clip-path-3">
      <rect id="Rectangle_783" data-name="Rectangle 783" width="38.501" height="38.501" fill="none"/>
    </clipPath>
  </defs>
  <g id="Group_1419" data-name="Group 1419" clip-path="url(#clip-path)">
    <g id="Group_1418" data-name="Group 1418">
      <g id="Group_1417" data-name="Group 1417" clip-path="url(#clip-path)">
        <path id="Path_518" data-name="Path 518" d="M47.207,110.332H30.648a5.745,5.745,0,0,1-5.745-5.745V88.029a5.745,5.745,0,0,1,5.745-5.745H47.207a5.744,5.744,0,0,1,5.745,5.745v16.559a5.745,5.745,0,0,1-5.745,5.745" transform="translate(1.127 3.724)" fill="#ccc"/>
        <path id="Path_519" data-name="Path 519" d="M89.991,110.332H73.432a5.745,5.745,0,0,1-5.745-5.745V88.029a5.745,5.745,0,0,1,5.745-5.745H89.991a5.744,5.744,0,0,1,5.745,5.745v16.559a5.745,5.745,0,0,1-5.745,5.745" transform="translate(3.063 3.724)" fill="#ccc"/>
        <path id="Path_520" data-name="Path 520" d="M132.774,110.332H116.215a5.745,5.745,0,0,1-5.745-5.745V88.029a5.745,5.745,0,0,1,5.745-5.745h16.559a5.744,5.744,0,0,1,5.745,5.745v16.559a5.745,5.745,0,0,1-5.745,5.745" transform="translate(4.999 3.724)" fill="#ccc"/>
        <path id="Path_521" data-name="Path 521" d="M175.557,110.332H159a5.745,5.745,0,0,1-5.745-5.745V88.029A5.745,5.745,0,0,1,159,82.284h16.559a5.744,5.744,0,0,1,5.745,5.745v16.559a5.745,5.745,0,0,1-5.745,5.745" transform="translate(6.936 3.724)" fill="#ccc"/>
        <path id="Path_522" data-name="Path 522" d="M47.207,150.31H30.648a5.745,5.745,0,0,1-5.745-5.745V128.007a5.745,5.745,0,0,1,5.745-5.745H47.207a5.744,5.744,0,0,1,5.745,5.745v16.559a5.745,5.745,0,0,1-5.745,5.745" transform="translate(1.127 5.533)" fill="#ccc"/>
        <path id="Path_523" data-name="Path 523" d="M89.991,150.31H73.432a5.745,5.745,0,0,1-5.745-5.745V128.007a5.745,5.745,0,0,1,5.745-5.745H89.991a5.744,5.744,0,0,1,5.745,5.745v16.559a5.745,5.745,0,0,1-5.745,5.745" transform="translate(3.063 5.533)" fill="#fdb619"/>
        <g id="Group_1416" data-name="Group 1416" transform="translate(65.523 122.569)" opacity="0.3">
          <g id="Group_1415" data-name="Group 1415">
            <g id="Group_1414" data-name="Group 1414" clip-path="url(#clip-path-3)">
              <path id="Path_524" data-name="Path 524" d="M90.216,117.262H73.657a10.983,10.983,0,0,0-10.971,10.971v16.559a10.984,10.984,0,0,0,10.971,10.971H90.216a10.984,10.984,0,0,0,10.972-10.971V128.233a10.984,10.984,0,0,0-10.972-10.971" transform="translate(-62.687 -117.262)" fill="#fdb619"/>
            </g>
          </g>
        </g>
        <path id="Path_525" data-name="Path 525" d="M132.774,150.31H116.215a5.745,5.745,0,0,1-5.745-5.745V128.007a5.745,5.745,0,0,1,5.745-5.745h16.559a5.744,5.744,0,0,1,5.745,5.745v16.559a5.745,5.745,0,0,1-5.745,5.745" transform="translate(4.999 5.533)" fill="#ccc"/>
        <path id="Path_526" data-name="Path 526" d="M175.557,150.31H159a5.745,5.745,0,0,1-5.745-5.745V128.007A5.745,5.745,0,0,1,159,122.262h16.559a5.744,5.744,0,0,1,5.745,5.745v16.559a5.745,5.745,0,0,1-5.745,5.745" transform="translate(6.936 5.533)" fill="#ccc"/>
        <path id="Path_527" data-name="Path 527" d="M47.207,189.878H30.648a5.745,5.745,0,0,1-5.745-5.745V167.575a5.745,5.745,0,0,1,5.745-5.745H47.207a5.744,5.744,0,0,1,5.745,5.745v16.559a5.745,5.745,0,0,1-5.745,5.745" transform="translate(1.127 7.324)" fill="#ccc"/>
        <path id="Path_528" data-name="Path 528" d="M89.991,189.878H73.432a5.745,5.745,0,0,1-5.745-5.745V167.575a5.745,5.745,0,0,1,5.745-5.745H89.991a5.744,5.744,0,0,1,5.745,5.745v16.559a5.745,5.745,0,0,1-5.745,5.745" transform="translate(3.063 7.324)" fill="#ccc"/>
        <path id="Path_529" data-name="Path 529" d="M132.774,189.878H116.215a5.745,5.745,0,0,1-5.745-5.745V167.575a5.745,5.745,0,0,1,5.745-5.745h16.559a5.744,5.744,0,0,1,5.745,5.745v16.559a5.745,5.745,0,0,1-5.745,5.745" transform="translate(4.999 7.324)" fill="#ccc"/>
        <path id="Path_530" data-name="Path 530" d="M175.557,189.878H159a5.745,5.745,0,0,1-5.745-5.745V167.575A5.745,5.745,0,0,1,159,161.83h16.559a5.744,5.744,0,0,1,5.745,5.745v16.559a5.745,5.745,0,0,1-5.745,5.745" transform="translate(6.936 7.324)" fill="#ccc"/>
        <path id="Path_531" data-name="Path 531" d="M161.6,37.319h0A12.623,12.623,0,0,1,148.979,24.7V12.623a12.623,12.623,0,1,1,25.245,0V24.7A12.623,12.623,0,0,1,161.6,37.319" transform="translate(6.742 0)" fill="#438083"/>
        <path id="Path_532" data-name="Path 532" d="M44.284,37.319h0A12.623,12.623,0,0,1,31.661,24.7V12.623a12.623,12.623,0,0,1,25.245,0V24.7A12.623,12.623,0,0,1,44.284,37.319" transform="translate(1.433 0)" fill="#438083"/>
        <path id="Path_533" data-name="Path 533" d="M186.506,22.87v1.052a18.162,18.162,0,0,1-36.325,0V22.87a5.745,5.745,0,0,0-5.744-5.745H69.625a5.746,5.746,0,0,0-5.747,5.745v1.052A18.161,18.161,0,0,1,45.717,42.084h0A18.163,18.163,0,0,1,27.554,23.921V22.87a5.744,5.744,0,0,0-5.745-5.745H5.746A5.744,5.744,0,0,0,0,22.87v186.61a5.744,5.744,0,0,0,5.745,5.746H209.382a5.745,5.745,0,0,0,5.745-5.746V22.87a5.745,5.745,0,0,0-5.745-5.745H192.251a5.745,5.745,0,0,0-5.745,5.745m13,182.477H15.623A5.745,5.745,0,0,1,9.879,199.6V73.876a5.744,5.744,0,0,1,5.745-5.745H199.5a5.744,5.744,0,0,1,5.744,5.745V199.6a5.744,5.744,0,0,1-5.744,5.745" transform="translate(0 0.775)" fill="#68a9ae"/>
      </g>
    </g>
  </g>
</svg>
