<svg width="24" height="23" viewBox="0 0 24 23" fill="none" xmlns="http://www.w3.org/2000/svg">
<path d="M5.8329 1.888C7.74272 1.39508 9.73211 1.68261 11.6419 1.97015L16.695 2.70953C17.4907 2.79168 18.2467 2.99706 18.9629 3.32567C19.6393 3.73644 20.1963 4.27043 20.634 4.88658C22.8621 7.80301 23.6976 12.1571 21.748 15.2789C20.3555 17.5381 17.809 18.7294 15.4218 19.7563C12.5173 20.9886 9.13529 22.1387 6.27057 20.7832C4.36075 19.8795 3.04776 17.99 2.33158 15.9362C1.6154 13.8823 1.41646 11.7053 1.25731 9.5693C1.09816 7.80301 0.978792 6.32426 1.97349 4.8455C2.92839 3.36675 4.12203 2.29876 5.8329 1.888Z" stroke="white" stroke-width="2" stroke-miterlimit="10"/>
</svg>
