<?xml version="1.0" encoding="utf-8"?>
<!-- Generator: Adobe Illustrator 26.2.1, SVG Export Plug-In . SVG Version: 6.00 Build 0)  -->
<svg version="1.1" id="Layer_1" xmlns="http://www.w3.org/2000/svg" xmlns:xlink="http://www.w3.org/1999/xlink" x="0px" y="0px"
	 viewBox="0 0 75.4 70.6" style="enable-background:new 0 0 75.4 70.6;" xml:space="preserve">
<style type="text/css">
	.st0{stroke:#000000;stroke-width:4;stroke-miterlimit:10;}
	.st1{clip-path:url(#SVGID_00000005248389594412301720000007903598286324609922_);}
	.st2{fill:none;stroke:#68A9AE;stroke-width:2;stroke-miterlimit:10;}
</style>
<g>
	<defs>
		<rect id="SVGID_1_" x="9.4" y="10.3" width="56.6" height="50.1"/>
	</defs>
	<clipPath id="SVGID_00000055666837503508150500000009309838795273095328_">
		<use xlink:href="#SVGID_1_"  style="overflow:visible;"/>
	</clipPath>
	<g id="Group_69" transform="translate(0 0)" style="clip-path:url(#SVGID_00000055666837503508150500000009309838795273095328_);">
		<path id="Path_69" class="st2" d="M22.2,11.9c4.8-1.2,9.8-0.5,14.6,0.2l12.7,1.8c2,0.2,3.9,0.7,5.7,1.5c1.7,1,3.1,2.3,4.2,3.8
			c5.6,7.1,7.7,17.7,2.8,25.3c-3.5,5.5-9.9,8.4-15.9,10.9c-7.3,3-15.8,5.8-23,2.5c-4.8-2.2-8.1-6.8-9.9-11.8s-2.3-10.3-2.7-15.5
			c-0.4-4.3-0.7-7.9,1.8-11.5C14.9,15.5,17.9,12.9,22.2,11.9z"/>
	</g>
</g>
</svg>
