<?xml version="1.0" encoding="utf-8"?>
<!-- Generator: Adobe Illustrator 26.2.1, SVG Export Plug-In . SVG Version: 6.00 Build 0)  -->
<svg version="1.1" id="Layer_1" xmlns="http://www.w3.org/2000/svg" xmlns:xlink="http://www.w3.org/1999/xlink" x="0px" y="0px"
	 viewBox="0 0 54.3 48.4" style="enable-background:new 0 0 54.3 48.4;" xml:space="preserve">
<style type="text/css">
	.st0{clip-path:url(#SVGID_00000044859097246011245230000001484491779245994155_);}
	.st1{fill:none;stroke:#438083;stroke-width:2;stroke-linecap:round;stroke-linejoin:round;}
	.st2{clip-path:url(#SVGID_00000091716216696214259190000005498509931913509262_);}
	.st3{fill:#438083;}
	.st4{clip-path:url(#SVGID_00000136412986790661504390000003319068822974616504_);}
</style>
<g id="Group_1635" transform="translate(0 0)">
	<g>
		<defs>
			<rect id="SVGID_1_" x="6.9" y="3.9" width="40.4" height="40.5"/>
		</defs>
		<clipPath id="SVGID_00000057135405326764128020000015488441558412836265_">
			<use xlink:href="#SVGID_1_"  style="overflow:visible;"/>
		</clipPath>
		
			<g id="Group_1630" transform="translate(0 0)" style="clip-path:url(#SVGID_00000057135405326764128020000015488441558412836265_);">
			<path id="Path_584" class="st1" d="M32.3,8.6H21.6 M11.3,8.6H9.6c-0.5,0-1,0.4-1,1v32.1c0,0.5,0.4,1,1,1h35c0.5,0,1-0.4,1-1
				c0,0,0,0,0,0V9.6c0-0.5-0.4-1-1-1c0,0,0,0,0,0h-1.8 M44.6,42.2H9.7c-0.6,0-1.1-0.5-1.1-1.1V17.3c0-0.6,0.5-1.1,1.1-1.1l0,0h34.8
				c0.6,0,1.1,0.5,1.1,1.1c0,0,0,0,0,0v23.8C45.6,41.7,45.2,42.2,44.6,42.2L44.6,42.2z"/>
			<g id="Group_1626" transform="translate(28.5 0)">
				<g id="Group_1625">
					<g>
						<defs>
							<rect id="SVGID_00000108275328713938769760000009569936974238795909_" x="6.9" y="3.9" width="4.3" height="8.7"/>
						</defs>
						<clipPath id="SVGID_00000102502767319627123840000016991712310436482732_">
							<use xlink:href="#SVGID_00000108275328713938769760000009569936974238795909_"  style="overflow:visible;"/>
						</clipPath>
						<g id="Group_1624" style="clip-path:url(#SVGID_00000102502767319627123840000016991712310436482732_);">
							<path id="Path_585" class="st3" d="M9.1,12.6L9.1,12.6c-1.2,0-2.2-1.3-2.2-2.9V6.9c0-1.6,1-2.9,2.2-2.9s2.2,1.3,2.2,2.9v2.8
								C11.3,11.3,10.3,12.6,9.1,12.6"/>
						</g>
					</g>
				</g>
			</g>
			<g id="Group_1629" transform="translate(7.404 0)">
				<g id="Group_1628">
					<g>
						<defs>
							<rect id="SVGID_00000008853485222759692750000014211640912291383981_" x="6.9" y="3.9" width="4.3" height="8.7"/>
						</defs>
						<clipPath id="SVGID_00000128453620960840543680000018248552926190096530_">
							<use xlink:href="#SVGID_00000008853485222759692750000014211640912291383981_"  style="overflow:visible;"/>
						</clipPath>
						<g id="Group_1627" style="clip-path:url(#SVGID_00000128453620960840543680000018248552926190096530_);">
							<path id="Path_586" class="st3" d="M9.1,12.6L9.1,12.6c-1.2,0-2.2-1.3-2.2-2.9V6.9c0-1.6,1-2.9,2.2-2.9s2.2,1.3,2.2,2.9v2.8
								C11.3,11.3,10.3,12.6,9.1,12.6"/>
						</g>
					</g>
				</g>
			</g>
		</g>
	</g>
</g>
</svg>
