<?xml version="1.0" encoding="utf-8"?>
<!-- Generator: Adobe Illustrator 26.2.1, SVG Export Plug-In . SVG Version: 6.00 Build 0)  -->
<svg version="1.1" id="Layer_1" xmlns="http://www.w3.org/2000/svg" xmlns:xlink="http://www.w3.org/1999/xlink" x="0px" y="0px"
	 viewBox="0 0 39.2 48.4" style="enable-background:new 0 0 39.2 48.4;" xml:space="preserve">
<style type="text/css">
	.st0{clip-path:url(#SVGID_00000150063999455513060180000008326150584214657695_);}
	.st1{fill:none;stroke:#3E6669;stroke-width:2;stroke-linecap:round;stroke-linejoin:round;}
	.st2{clip-path:url(#SVGID_00000099625681931126578600000011550053066429904795_);}
	.st3{fill:#3E6669;}
	.st4{clip-path:url(#SVGID_00000160907429078221568450000003567073368700145339_);}
</style>
<g id="Group_1631" transform="translate(0 0)">
	<g>
		<defs>
			<rect id="SVGID_1_" x="7.8" y="12.9" width="23.6" height="23.7"/>
		</defs>
		<clipPath id="SVGID_00000064315280597264254890000008442093921471473850_">
			<use xlink:href="#SVGID_1_"  style="overflow:visible;"/>
		</clipPath>
		<g id="Group_1630" style="clip-path:url(#SVGID_00000064315280597264254890000008442093921471473850_);">
			<path id="Path_584" class="st1" d="M22.6,15.7h-6.3 M10.4,15.7h-1c-0.3,0-0.6,0.3-0.6,0.6l0,0V35c0,0.3,0.3,0.6,0.6,0.6h20.5
				c0.3,0,0.6-0.3,0.6-0.6V16.2c0-0.3-0.3-0.6-0.6-0.6h-1.1 M29.8,35.3H9.4c-0.4,0-0.6-0.3-0.6-0.6l0,0V20.7c0-0.4,0.3-0.6,0.6-0.6
				l0,0h20.4c0.4,0,0.6,0.3,0.6,0.6v13.9C30.4,35,30.1,35.3,29.8,35.3C29.8,35.3,29.8,35.3,29.8,35.3L29.8,35.3z"/>
			<g id="Group_1626">
				<g id="Group_1625">
					<g>
						<defs>
							<rect id="SVGID_00000124156901045337047200000017599560315128771730_" x="24.5" y="12.9" width="2.5" height="5.1"/>
						</defs>
						<clipPath id="SVGID_00000111888299514293761020000011657434053990924201_">
							<use xlink:href="#SVGID_00000124156901045337047200000017599560315128771730_"  style="overflow:visible;"/>
						</clipPath>
						<g id="Group_1624" style="clip-path:url(#SVGID_00000111888299514293761020000011657434053990924201_);">
							<path id="Path_585" class="st3" d="M25.7,18L25.7,18c-0.7,0-1.3-0.8-1.3-1.7v-1.6c0-0.9,0.6-1.7,1.3-1.7s1.3,0.8,1.3,1.7v1.6
								C27,17.2,26.4,18,25.7,18"/>
						</g>
					</g>
				</g>
			</g>
			<g id="Group_1629">
				<g id="Group_1628">
					<g>
						<defs>
							<rect id="SVGID_00000067948445825493098610000017032843563433422982_" x="12.1" y="12.9" width="2.5" height="5.1"/>
						</defs>
						<clipPath id="SVGID_00000103969057916283258170000001438685062718841766_">
							<use xlink:href="#SVGID_00000067948445825493098610000017032843563433422982_"  style="overflow:visible;"/>
						</clipPath>
						<g id="Group_1627" style="clip-path:url(#SVGID_00000103969057916283258170000001438685062718841766_);">
							<path id="Path_586" class="st3" d="M13.4,18L13.4,18c-0.7,0-1.3-0.8-1.3-1.7v-1.6c0-0.9,0.6-1.7,1.3-1.7s1.3,0.8,1.3,1.7v1.6
								C14.7,17.2,14.1,18,13.4,18"/>
						</g>
					</g>
				</g>
			</g>
		</g>
	</g>
</g>
</svg>
