<svg id="Footer_Wave" data-name="Footer Wave" xmlns="http://www.w3.org/2000/svg" xmlns:xlink="http://www.w3.org/1999/xlink" width="1440.82" height="158.392" viewBox="0 0 1440.82 158.392">
  <defs>
    <clipPath id="clip-path">
      <rect id="Rectangle_118" data-name="Rectangle 118" width="1440.82" height="158.392" fill="none"/>
    </clipPath>
    <clipPath id="clip-path-2">
      <rect id="Rectangle_117" data-name="Rectangle 117" width="1440.817" height="158.392" fill="none"/>
    </clipPath>
    <clipPath id="clip-path-3">
      <rect id="Rectangle_115" data-name="Rectangle 115" width="1440.82" height="153.393" transform="translate(0 4.999)" fill="none"/>
    </clipPath>
    <clipPath id="clip-path-4">
      <rect id="Rectangle_116" data-name="Rectangle 116" width="1440.82" height="21.509" transform="translate(0)" fill="none"/>
    </clipPath>
  </defs>
  <g id="Group_207" data-name="Group 207" clip-path="url(#clip-path)">
    <g id="Group_206" data-name="Group 206">
      <g id="Group_205" data-name="Group 205" clip-path="url(#clip-path-2)">
        <g id="Group_201" data-name="Group 201" style="mix-blend-mode: normal;isolation: isolate">
          <g id="Group_200" data-name="Group 200">
            <g id="Group_199" data-name="Group 199" clip-path="url(#clip-path-3)">
              <path id="Path_104" data-name="Path 104" d="M1440.817,158.392V8.061c-81.4.027-164.009,1.376-243.928,2.682h-.242c-58.312.953-118.608,1.938-177.93,2.4-35.06.278-72.472.4-121.3.4-21.692,0-44.337-.024-62.533-.043h-.022c-19.415-.02-41.42-.043-62.511-.043-62.034,0-135.212.176-207.61,1.482-21.825.393-43.779.883-65.01,1.358h-.04c-48.642,1.084-98.946,2.208-148.419,2.208-34.6,0-65.681-.542-95.035-1.652-34.684-1.317-69.115-3.329-102.414-5.277C125.568,9.925,96.354,8.217,67.33,6.96,43.1,5.908,20.887,5.26,0,5V158.392Z" fill="#68a9ae"/>
            </g>
          </g>
        </g>
        <g id="Group_204" data-name="Group 204" opacity="0.199" style="mix-blend-mode: normal;isolation: isolate">
          <g id="Group_203" data-name="Group 203">
            <g id="Group_202" data-name="Group 202" clip-path="url(#clip-path-4)">
              <path id="Path_105" data-name="Path 105" d="M0,8c20.879.263,43.091.91,67.322,1.961,28.966,1.255,58.139,2.96,86.352,4.608l.129.009.139.008h.024c33.26,1.944,67.652,3.953,102.263,5.266,29.358,1.114,60.444,1.655,95.041,1.655,49.418,0,99.682-1.123,148.293-2.207h.135l.225,0h.038c21.222-.474,43.165-.964,64.784-1.352,72.388-1.306,145.545-1.482,207.561-1.482,21.619,0,44.195.023,62.338.042h.287c18.218.018,40.9.042,62.507.042,48.857,0,86.262-.126,121.283-.4,59.315-.462,119.59-1.448,177.879-2.4h.322c79.88-1.306,162.451-2.655,243.9-2.681V3.059c-81.328.028-163.868,1.373-243.718,2.679h-.5c-58.289.953-118.564,1.938-177.879,2.4-35.129.278-72.534.4-121.282.4-20.308,0-40.965-.022-60.943-.043h-6.584c-18.825-.018-38.291-.037-57.607-.037-62.019,0-135.176.175-207.561,1.481-22.1.4-43.939.888-65.056,1.36-48.644,1.084-98.94,2.207-148.413,2.207-34.593,0-65.682-.541-95.041-1.654-34.756-1.319-69.158-3.331-102.427-5.276l-.127-.008C125.473,4.919,96.3,3.215,67.33,1.96,43.1.909,20.882.262,0,0Z" fill="#68a9ae"/>
            </g>
          </g>
        </g>
      </g>
    </g>
  </g>
</svg>
