<?xml version="1.0" encoding="utf-8"?>
<!-- Generator: Adobe Illustrator 26.2.1, SVG Export Plug-In . SVG Version: 6.00 Build 0)  -->
<svg version="1.1" id="Layer_1" xmlns="http://www.w3.org/2000/svg" xmlns:xlink="http://www.w3.org/1999/xlink" x="0px" y="0px"
	 viewBox="0 0 39.2 48.4" style="enable-background:new 0 0 39.2 48.4;" xml:space="preserve">
<style type="text/css">
	.st0{clip-path:url(#SVGID_00000113337923463898248430000009357804571749605031_);}
	.st1{fill:none;stroke:#3E6669;stroke-width:2;stroke-linecap:round;stroke-linejoin:round;}
	.st2{fill:#FFFFFF;}
	.st3{fill:none;stroke:#438083;stroke-width:2;stroke-linecap:round;stroke-linejoin:round;}
</style>
<g id="Group_1634" transform="translate(0 0)">
	<g>
		<defs>
			<rect id="SVGID_1_" x="-4.3" y="5.3" width="48.8" height="40.5"/>
		</defs>
		<clipPath id="SVGID_00000047766505668706345020000006406331556817546127_">
			<use xlink:href="#SVGID_1_"  style="overflow:visible;"/>
		</clipPath>
		
			<g id="Mask_Group_1619" transform="translate(0 0)" style="clip-path:url(#SVGID_00000047766505668706345020000006406331556817546127_);">
			<path id="Path_577" class="st1" d="M25,27.4c5.2-2.7,7.3-9.1,4.6-14.3s-9.1-7.3-14.3-4.6S8,17.6,10.7,22.8c1,2,2.6,3.6,4.6,4.6
				C8.1,29.5,3.1,36.2,3.1,43.7h34C37.1,36.2,32.2,29.5,25,27.4z"/>
			<path id="Path_578" class="st2" d="M25,27.4c5.2-2.7,7.3-9.1,4.6-14.3s-9.1-7.3-14.3-4.6S8,17.6,10.7,22.8c1,2,2.6,3.6,4.6,4.6
				C8.1,29.5,3.1,36.2,3.1,43.7h34C37.1,36.2,32.2,29.5,25,27.4"/>
			<path id="Path_579" class="st3" d="M25,27.4c5.2-2.7,7.3-9.1,4.6-14.3s-9.1-7.3-14.3-4.6S8,17.6,10.7,22.8c1,2,2.6,3.6,4.6,4.6
				C8.1,29.5,3.1,36.2,3.1,43.7h34C37.1,36.2,32.2,29.5,25,27.4z"/>
		</g>
	</g>
</g>
</svg>
