<?xml version="1.0" encoding="utf-8"?>
<!-- Generator: Adobe Illustrator 26.2.1, SVG Export Plug-In . SVG Version: 6.00 Build 0)  -->
<svg version="1.1" id="Layer_1" xmlns="http://www.w3.org/2000/svg" xmlns:xlink="http://www.w3.org/1999/xlink" x="0px" y="0px"
	 viewBox="0 0 39.2 48.4" style="enable-background:new 0 0 39.2 48.4;" xml:space="preserve">
<style type="text/css">
	.st0{clip-path:url(#SVGID_00000075856593862486304770000014401482169337586873_);}
	.st1{fill:none;}
	.st2{fill:none;stroke:#3E6669;stroke-width:2;stroke-linecap:round;stroke-linejoin:round;}
</style>
<g id="Group_1619" transform="translate(0 0)">
	<g>
		<defs>
			<rect id="SVGID_1_" x="6" y="12.3" width="27.2" height="22.6"/>
		</defs>
		<clipPath id="SVGID_00000146491930562712854120000002910313907710672826_">
			<use xlink:href="#SVGID_1_"  style="overflow:visible;"/>
		</clipPath>
		
			<g id="Group_1619-2" transform="translate(0 0)" style="clip-path:url(#SVGID_00000146491930562712854120000002910313907710672826_);">
			<path id="Path_574" class="st1" d="M29.1,30.9H32c0-3.5-2.3-6.7-5.7-7.7c2.4-1.2,3.4-4.2,2.2-6.7c-0.9-1.7-2.6-2.7-4.4-2.7"/>
			<path id="Path_575" class="st2" d="M29.1,30.9H32c0-3.5-2.3-6.7-5.7-7.7c2.4-1.2,3.4-4.2,2.2-6.7c-0.9-1.7-2.6-2.7-4.4-2.7"/>
			<path id="Path_576" class="st1" d="M19.4,24.6c2.9-1.5,4-5,2.6-7.9s-5-4-7.9-2.6s-4,5-2.6,7.9c0.6,1.1,1.5,2,2.6,2.6
				c-4,1.2-6.8,4.9-6.8,9.1h19C26.2,29.5,23.4,25.8,19.4,24.6"/>
			<path id="Path_577" class="st2" d="M19.4,24.6c2.9-1.5,4-5,2.6-7.9s-5-4-7.9-2.6s-4,5-2.6,7.9c0.6,1.1,1.5,2,2.6,2.6
				c-4,1.2-6.8,4.9-6.8,9.1h19C26.1,29.5,23.4,25.8,19.4,24.6z"/>
			<path id="Path_578" class="st1" d="M19.4,24.6c2.9-1.5,4-5,2.6-7.9s-5-4-7.9-2.6s-4,5-2.6,7.9c0.6,1.1,1.5,2,2.6,2.6
				c-4,1.2-6.8,4.9-6.8,9.1h19C26.2,29.5,23.4,25.8,19.4,24.6"/>
			<path id="Path_579" class="st2" d="M19.4,24.6c2.9-1.5,4-5,2.6-7.9s-5-4-7.9-2.6s-4,5-2.6,7.9c0.6,1.1,1.5,2,2.6,2.6
				c-4,1.2-6.8,4.9-6.8,9.1h19C26.1,29.5,23.4,25.8,19.4,24.6z"/>
		</g>
	</g>
</g>
</svg>
