<svg id="Header_Wave" data-name="Header Wave" xmlns="http://www.w3.org/2000/svg" xmlns:xlink="http://www.w3.org/1999/xlink" width="1440.82" height="21.51" viewBox="0 0 1440.82 21.51">
  <defs>
    <clipPath id="clip-path">
      <rect id="Rectangle_104" data-name="Rectangle 104" width="1440.82" height="21.51" fill="none"/>
    </clipPath>
    <clipPath id="clip-path-2">
      <rect id="Rectangle_103" data-name="Rectangle 103" width="1440.817" height="21.51" transform="translate(0 0)" fill="none"/>
    </clipPath>
    <clipPath id="clip-path-3">
      <rect id="Rectangle_101" data-name="Rectangle 101" width="1440.82" height="21.51" transform="translate(0 0)" fill="none"/>
    </clipPath>
    <clipPath id="clip-path-4">
      <rect id="Rectangle_102" data-name="Rectangle 102" width="1440.82" height="16.511" transform="translate(0 0)" fill="none"/>
    </clipPath>
  </defs>
  <g id="Group_181" data-name="Group 181" clip-path="url(#clip-path)">
    <g id="Group_180" data-name="Group 180">
      <g id="Group_179" data-name="Group 179" clip-path="url(#clip-path-2)">
        <g id="Group_175" data-name="Group 175" opacity="0.199" style="mix-blend-mode: normal;isolation: isolate">
          <g id="Group_174" data-name="Group 174">
            <g id="Group_173" data-name="Group 173" clip-path="url(#clip-path-3)">
              <path id="Path_102" data-name="Path 102" d="M1440.817,13.506c-20.879-.262-43.091-.909-67.322-1.96-28.966-1.255-58.139-2.96-86.352-4.609l-.129-.008-.139-.008h-.024c-33.26-1.944-67.652-3.954-102.263-5.267C1155.23.541,1124.144,0,1089.547,0c-49.418,0-99.682,1.122-148.293,2.206h-.135l-.225,0h-.038c-21.222.474-43.165.963-64.784,1.352C803.684,4.869,730.527,5.045,668.511,5.045c-21.62,0-44.2-.023-62.339-.042h-.286c-18.218-.019-40.9-.043-62.507-.043-48.857,0-86.262.127-121.283.4-59.315.462-119.59,1.447-177.879,2.4H243.9C164.015,9.067,81.444,10.415,0,10.442v8.009c81.328-.028,163.868-1.374,243.718-2.679h.5c58.289-.953,118.564-1.938,177.879-2.4,35.129-.278,72.534-.4,121.282-.4,20.308,0,40.965.021,60.942.042H610.9c18.825.019,38.291.038,57.607.038,62.019,0,135.176-.176,207.561-1.482,22.1-.4,43.939-.887,65.056-1.359C989.77,9.126,1040.066,8,1089.539,8c34.593,0,65.682.541,95.041,1.654,34.756,1.319,69.158,3.331,102.427,5.276l.127.007c28.21,1.649,57.382,3.354,86.353,4.609,24.235,1.051,46.448,1.7,67.33,1.96Z" fill="#68a9ae"/>
            </g>
          </g>
        </g>
        <g id="Group_178" data-name="Group 178" opacity="0.298" style="mix-blend-mode: normal;isolation: isolate">
          <g id="Group_177" data-name="Group 177">
            <g id="Group_176" data-name="Group 176" clip-path="url(#clip-path-4)">
              <path id="Path_103" data-name="Path 103" d="M1440.817,13.507c-20.88-.262-43.094-.91-67.328-1.96-29.026-1.258-58.238-2.967-86.49-4.618h-.012c-33.3-1.947-67.744-3.961-102.4-5.276C1155.234.54,1124.145,0,1089.548,0c-49.472,0-99.779,1.123-148.43,2.208h-.039c-21.28.475-43.292.967-65.006,1.358C803.652,4.872,730.485,5.048,668.464,5.048c-20.656,0-41.662-.021-61.975-.042h-1.115c-20.289-.021-41.27-.042-62.052-.042-48.8,0-86.191.126-121.227.4-59.432.459-119.785,1.445-178.161,2.4h-.015C164,9.07,81.381,10.419,0,10.445v3c81.4-.027,164.009-1.376,243.927-2.683h.243c58.312-.953,118.608-1.938,177.93-2.4,35.06-.278,72.472-.4,121.3-.4,21.692,0,44.337.024,62.533.043h.021c19.415.02,41.421.042,62.512.042,62.034,0,135.212-.176,207.609-1.481,21.826-.394,43.78-.884,65.011-1.358h.039C989.77,4.127,1040.074,3,1089.547,3c34.6,0,65.681.541,95.035,1.652C1219.266,5.972,1253.7,7.985,1287,9.932c28.253,1.652,57.467,3.36,86.491,4.618,24.229,1.051,46.443,1.7,67.33,1.961Z" fill="#68a9ae"/>
            </g>
          </g>
        </g>
      </g>
    </g>
  </g>
</svg>
