<?xml version="1.0" encoding="utf-8"?>
<!-- Generator: Adobe Illustrator 26.2.1, SVG Export Plug-In . SVG Version: 6.00 Build 0)  -->
<svg version="1.1" id="Layer_1" xmlns="http://www.w3.org/2000/svg" xmlns:xlink="http://www.w3.org/1999/xlink" x="0px" y="0px"
	 viewBox="0 0 39.2 48.4" style="enable-background:new 0 0 39.2 48.4;" xml:space="preserve">
<style type="text/css">
	.st0{clip-path:url(#SVGID_00000155840223430384962160000012949802393402086054_);}
	.st1{fill:none;stroke:#3E6669;stroke-width:2;stroke-linecap:round;stroke-linejoin:round;}
	.st2{fill:#3E6669;}
</style>
<g id="Group_1623" transform="translate(0 0)">
	<g>
		<defs>
			<rect id="SVGID_1_" x="7" y="11.2" width="24" height="24"/>
		</defs>
		<clipPath id="SVGID_00000075870332999475952860000017342801738609441154_">
			<use xlink:href="#SVGID_1_"  style="overflow:visible;"/>
		</clipPath>
		
			<g id="Group_1622" transform="translate(0 0)" style="clip-path:url(#SVGID_00000075870332999475952860000017342801738609441154_);">
			<path id="Path_582" class="st1" d="M12,14c0.7-0.8,1.7-1.3,2.7-1.5c1.7-0.3,3.5-0.3,5.2,0.1l4.5,0.6c0.7,0.1,1.4,0.2,2,0.5
				c0.6,0.3,1.1,0.8,1.5,1.4c1.4,1.8,2.1,4.1,1.9,6.4"/>
			<path id="Path_583" class="st2" d="M15.1,35.2c-1,0-2-0.2-3-0.6c-1.9-1-3.4-2.7-4-4.8c-0.6-1.9-0.9-3.8-1-5.8
				c-0.1-1.5-0.3-3.1,0.8-4.7c0.9-1.4,2.3-2.5,4-2.9c0,0,0,0,0.1,0c1.8-0.3,3.7-0.3,5.6,0.1l4.5,0.6c0.8,0.1,1.6,0.3,2.3,0.6
				c0.7,0.4,1.4,1,1.9,1.7c2,2.5,3.2,6.8,1,10.1c-1.4,2.2-3.8,3.3-6.1,4.2C19.2,34.6,17.2,35.1,15.1,35.2 M12.3,18.3
				c-1.2,0.3-2.2,1.1-2.9,2.1c-0.7,1-0.6,2.1-0.5,3.5c0.1,1.8,0.4,3.6,0.9,5.4c0.5,1.6,1.6,2.9,3.1,3.6c2.1,1,4.8,0.1,7.4-0.9
				c2-0.8,4.1-1.8,5.2-3.5c1.6-2.5,0.6-5.9-1-7.9c-0.3-0.5-0.7-0.8-1.2-1.1c-0.5-0.2-1.1-0.4-1.7-0.4l-4.6-0.6
				C15.6,18,13.9,18,12.3,18.3"/>
		</g>
	</g>
</g>
</svg>
