<svg id="Layer_1" data-name="Layer 1" xmlns="http://www.w3.org/2000/svg" viewBox="0 0 202.37 178.21"><defs><style>.cls-1{fill:#68a9ae;}.cls-2,.cls-3{fill:#fff;}.cls-2{opacity:0.5;}</style></defs><path class="cls-1" d="M74.93,55.82c0-.63,0-1.26.1-1.88C75,54.56,74.93,55.19,74.93,55.82Z"/><path class="cls-1" d="M80.71,41.52l-.34.36Z"/><path class="cls-1" d="M84.89,38.17l.24-.15Z"/><path class="cls-1" d="M78.74,43.9l.47-.63Z"/><path class="cls-1" d="M81.51,40.73l.34-.31Z"/><path class="cls-1" d="M75.38,51.55c.12-.58.27-1.14.44-1.7C75.65,50.41,75.5,51,75.38,51.55Z"/><path class="cls-1" d="M75.08,53.42c.06-.5.14-1,.23-1.47C75.22,52.43,75.14,52.92,75.08,53.42Z"/><path class="cls-1" d="M76.67,47.55c.22-.49.45-1,.7-1.44C77.12,46.58,76.89,47.06,76.67,47.55Z"/><path class="cls-1" d="M76,49.32q.19-.6.42-1.17Q76.19,48.72,76,49.32Z"/><path class="cls-1" d="M77.73,45.48c.16-.28.33-.57.51-.84C78.06,44.91,77.89,45.2,77.73,45.48Z"/><path class="cls-2" d="M87.93,138.39a13,13,0,0,1-13-13V55.82A20.71,20.71,0,0,1,86.26,37.39l0,0s-9,4.47-11.78,5.87A20.71,20.71,0,0,0,63,61.76v69.57a13,13,0,0,0,13,13h3.13l12-5.93H87.93Z"/><path class="cls-3" d="M178.36,30.86c-4.27-5.44-9.16-10.59-15.28-13.81-6.36-3.34-13.64-4.39-20.75-5.39L96.48,5.23C78.93,2.76,60.89.32,43.67,4.5c-15.35,3.73-26.31,13-35.13,25.7-9,13-7.74,26.22-6.39,41.67,1.67,19,3.39,38.2,9.92,56.09s18.57,34.58,35.87,42.56c26.08,12,56.57,1.94,83.14-9,21.85-9,44.75-19.49,57.55-39.35C206.34,94.72,198.54,56.59,178.36,30.86ZM138.63,77A25.32,25.32,0,0,1,131,86.19a30.29,30.29,0,0,1-5.36,3.17h0c-1.27.63-9.2,4.53-10.47,5.2a36.27,36.27,0,0,1-7.62,3,55.16,55.16,0,0,1-14.31,1.75H91.07v39.14h0l-12,5.93H76a13,13,0,0,1-13-13V61.76A20.71,20.71,0,0,1,74.44,43.24c2.78-1.4,11.78-5.87,11.78-5.87l0,0a20.55,20.55,0,0,1,9.37-2.27h9.84a56.72,56.72,0,0,1,14.22,1.68,32.89,32.89,0,0,1,11.42,5.32,24.71,24.71,0,0,1,7.6,9.24,29.46,29.46,0,0,1,2.64,12.79A28.91,28.91,0,0,1,138.63,77Z"/><path class="cls-1" d="M119.58,91.55l1.55-.46Z"/><path class="cls-1" d="M122.69,90.57l-.41.13Z"/><path class="cls-2" d="M119.51,91.57a55.3,55.3,0,0,1-14.32,1.75H91.07v5.93h2.17a55.16,55.16,0,0,0,14.31-1.75,36.27,36.27,0,0,0,7.62-3c1.27-.67,9.2-4.57,10.47-5.2A37.85,37.85,0,0,1,119.51,91.57Z"/><path class="cls-1" d="M95.32,50.53l.29-.13Z"/><path class="cls-1" d="M94.72,50.83l.29-.16Z"/><path class="cls-1" d="M94.15,51.19a3.28,3.28,0,0,1,.31-.2A3.28,3.28,0,0,0,94.15,51.19Z"/><path class="cls-1" d="M97.34,50l.23,0Z"/><path class="cls-1" d="M93.63,51.59a3.92,3.92,0,0,1,.32-.25A3.92,3.92,0,0,0,93.63,51.59Z"/><path class="cls-1" d="M96,50.28l.28-.09Z"/><path class="cls-1" d="M93.56,51.65a7.14,7.14,0,0,0-1.49,1.79A7.14,7.14,0,0,1,93.56,51.65Z"/><path class="cls-1" d="M96.62,50.09l.27-.07Z"/><path class="cls-1" d="M91.78,54l.26-.49Z"/><path class="cls-1" d="M117.05,76.67l.79-.34Z"/><path class="cls-1" d="M115.22,77.33c.32-.1.64-.2.94-.31Z"/><path class="cls-1" d="M114.78,77.45a29.24,29.24,0,0,1-3.87.82A27.73,27.73,0,0,0,114.78,77.45Z"/><path class="cls-1" d="M91.53,54.57c.06-.18.14-.35.21-.51C91.67,54.22,91.59,54.39,91.53,54.57Z"/><path class="cls-1" d="M118.83,75.82l.41-.23Z"/><path class="cls-3" d="M113.26,70.09c0-5-1.58-8.43-4.85-10.62-3.61-2.42-8.9-3.65-15.72-3.65H91.18c0-.2.08-.39.14-.59a7.14,7.14,0,0,0-.25,1.86v21.6h13.58a44.69,44.69,0,0,0,6.26-.42A13.52,13.52,0,0,0,113.26,70.09Z"/><path class="cls-1" d="M91.33,55.19c0-.19.11-.37.17-.55C91.44,54.82,91.38,55,91.33,55.19Z"/><path class="cls-2" d="M120.44,74.8c3.21-2.41,4.77-5.89,4.77-10.65,0-5-1.58-8.43-4.84-10.61-3.61-2.42-8.9-3.65-15.72-3.65H98.26a7.21,7.21,0,0,0-7.08,5.93h1.51c6.82,0,12.11,1.23,15.72,3.65,3.27,2.19,4.85,5.66,4.85,10.62a13.52,13.52,0,0,1-2.35,8.18A20.62,20.62,0,0,0,120.44,74.8Z"/></svg>