<svg id="Layer_1" data-name="Layer 1" xmlns="http://www.w3.org/2000/svg" viewBox="0 0 389.61 92.49"><defs><style>.cls-1{opacity:0.5;}.cls-2{fill:#68a9ae;}</style></defs><g class="cls-1"><path class="cls-2" d="M48.42,16.22a25.32,25.32,0,0,0-8.75-4.07,43.43,43.43,0,0,0-10.89-1.29L23.19,8l-9,4.49A15.89,15.89,0,0,0,5.39,26.72V80a10,10,0,0,0,10,10h2.4l9.15-4.54-9.15-30H28.57a42.25,42.25,0,0,0,11-1.34,27.83,27.83,0,0,0,5.83-2.26c1.06-.56,8.17-4.06,8.17-4.06s.25-2,.64-4.85c.42-3.1,2.09-6.12,2.09-9.82a22.57,22.57,0,0,0-2-9.8A19,19,0,0,0,48.42,16.22ZM43.9,33.1c0,3.64-1.2,6.3-3.66,8.15-2.64,2-6.7,3-12.09,3H17.75V27.68a5.51,5.51,0,0,1,5.51-5.51h4.89c5.22,0,9.27.94,12,2.79C42.69,26.64,43.9,29.3,43.9,33.1Z"/><path class="cls-2" d="M98.78,77.42c-.65.54-1.38.2-2.17.71a15.27,15.27,0,0,1-8.31,2.19,15,15,0,0,1-6.07-1.22,15.85,15.85,0,0,1-4.93-3.32A15.12,15.12,0,0,1,74,70.88a16.27,16.27,0,0,1-1-3.59h27.36a12.3,12.3,0,0,0,6.11-1.62c2.27-1.29,8.33-4.12,8.33-4.12S113,54.31,111.92,51.3A25,25,0,0,0,107,42.78a23.66,23.66,0,0,0-8.18-5.85c-3.23-1.42-9.71,1.77-11.14-2.14C87.24,33.62,85,32.9,85,32.9l-9.13,4.52a26.51,26.51,0,0,0-7.55,5.44,27.34,27.34,0,0,0-5.75,9A29.92,29.92,0,0,0,60.51,63a29.22,29.22,0,0,0,2.12,11.19,28.24,28.24,0,0,0,5.79,8.94,26.11,26.11,0,0,0,8.83,6,28.66,28.66,0,0,0,11,2.13,29.73,29.73,0,0,0,12.38-2.63c3.86-1.76,10.94-5.46,10.94-5.46l1.15-5.1-1.9-.62A9.68,9.68,0,0,0,98.78,77.42ZM73.27,56.82a14.06,14.06,0,0,1,.94-2.61,15.44,15.44,0,0,1,3.18-4.45A15.25,15.25,0,0,1,82,46.68a14.22,14.22,0,0,1,5.66-1.11c4.44,0,7.72,1.23,10,3.78a14.08,14.08,0,0,1,3.24,5.95,1.16,1.16,0,0,1-.21,1,1.31,1.31,0,0,1-1,.52Z"/><path class="cls-2" d="M172.76,43A26.49,26.49,0,0,0,164,37a28.86,28.86,0,0,0-11.38-2.18,25.87,25.87,0,0,0-11.44,2.71,31.84,31.84,0,0,0-4.94,3.24V15.36c0-5.25-2.78-14.08-2.78-14.08L124.3,5.83V65.57a26.63,26.63,0,0,0,15.6,23.12,31.91,31.91,0,0,0,12.71,2.52A28.86,28.86,0,0,0,164,89c3.4-1.45,10.36-5.11,10.36-5.11s2.72-6.44,4.05-9.87a31.5,31.5,0,0,0,0-22.09A27,27,0,0,0,172.76,43Zm-4.08,20a21,21,0,0,1-1.13,6.92,16.24,16.24,0,0,1-3.15,5.49,14,14,0,0,1-5,3.59,17,17,0,0,1-6.9,1.32A16.19,16.19,0,0,1,145.92,79a16,16,0,0,1-5.21-3.61,16.36,16.36,0,0,1-3.43-5.45,19.74,19.74,0,0,1,0-13.88,16.89,16.89,0,0,1,3.44-5.53,15.85,15.85,0,0,1,5.2-3.64,16.19,16.19,0,0,1,6.59-1.32,16.51,16.51,0,0,1,6.87,1.36,14.69,14.69,0,0,1,5,3.65,16.33,16.33,0,0,1,3.15,5.49A21,21,0,0,1,168.68,63Z"/><path class="cls-2" d="M269,1.28l-9.16,4.55V80.41A9.55,9.55,0,0,0,269.4,90h2.41L281,85.4l-9.15-70C271.81,10.11,274.28,1.28,269,1.28Z"/><path class="cls-2" d="M322.29,62.56c-3.1-2.55-7.64-4.41-13.89-5.69-3.74-.78-6.47-1.7-8.1-2.76a3.56,3.56,0,0,1-1.74-3.28,4.13,4.13,0,0,1,.55-2.22,5,5,0,0,1,1.6-1.64,8.17,8.17,0,0,1,2.58-1,15.14,15.14,0,0,1,3.26-.36,11.36,11.36,0,0,1,6.05,1.59c.33.2.65.42.95.64a10,10,0,0,0,10.53,1c.5-.25,9-4.38,9.5-4.72L331,41.5l-4.84,3.3a18.52,18.52,0,0,0-8.28-7.47,25.37,25.37,0,0,0-11-2.54c-2.43,0-1.6-2.27-1.6-2.27s-10,4.81-11.89,6.11a15.29,15.29,0,0,0-4.66,5.22,15.64,15.64,0,0,0-1.77,7.61,13.44,13.44,0,0,0,1.7,7A14.91,14.91,0,0,0,292.76,63,18.47,18.47,0,0,0,298,65.65c1.7.54,3.33,1,4.84,1.36A47.09,47.09,0,0,1,313,70.42a3.88,3.88,0,0,1,2.44,3.7,5.65,5.65,0,0,1-.62,2.83,5.71,5.71,0,0,1-1.77,1.89A8,8,0,0,1,310.28,80a20.11,20.11,0,0,1-3.94.37,12.92,12.92,0,0,1-6.84-1.86,15.54,15.54,0,0,1-1.52-1c-2.1-1.61.46-6.29-2.08-5.38a49.16,49.16,0,0,0-5.36,2.62,48.36,48.36,0,0,0-6.79,4l1.3,1.91a22.47,22.47,0,0,0,9.62,8.09,29.21,29.21,0,0,0,11.78,2.51,31.43,31.43,0,0,0,7.21-.85,21.08,21.08,0,0,0,4.07-1.43c.94-.45,8.77-4.4,8.77-4.4a14.35,14.35,0,0,1,1.59-4.06c1.29-2.28-.78-3.67-.78-6.88A13.61,13.61,0,0,0,322.29,62.56Z"/><path class="cls-2" d="M375.07,46.83l9.15-4.55s-12.91-6.23-17.53-6.23h-5.46V31.74l-2.79-14.09-9.15,4.55V32l-1-.54-9.14,4.55v2.4a8.39,8.39,0,0,0,8.38,8.38h1.8V75.07a17.5,17.5,0,0,0,1.44,7.64,13.25,13.25,0,0,0,3.79,4.85,13,13,0,0,0,5,2.43,20.1,20.1,0,0,0,4.75.59,18.18,18.18,0,0,0,2.13-.18,9.64,9.64,0,0,0,3-.92l9.11-4.54a53.44,53.44,0,0,0,.09-5.37l-4.06-2.84-3.29,1.65a12.82,12.82,0,0,1-2.62,1,9.25,9.25,0,0,1-4.81.06,2.77,2.77,0,0,1-1.29-.75,4.08,4.08,0,0,1-.91-1.75,14.22,14.22,0,0,1-.42-3.84V46.83Z"/><path class="cls-2" d="M240.54,43a26.35,26.35,0,0,0-8.76-6,28.86,28.86,0,0,0-11.38-2.18A25.88,25.88,0,0,0,209,37.5,31.31,31.31,0,0,0,204,40.74V15.36c0-5.25-2.79-14.08-2.79-14.08l-9.15,4.55V65.57a26.63,26.63,0,0,0,15.6,23.12,31.92,31.92,0,0,0,12.72,2.52A28.86,28.86,0,0,0,231.78,89c3.4-1.45,10.35-5.11,10.35-5.11s2.72-6.44,4.06-9.87a31.5,31.5,0,0,0,0-22.09A27.2,27.2,0,0,0,240.54,43Zm-4.08,20a21,21,0,0,1-1.13,6.92,16.24,16.24,0,0,1-3.15,5.49,14,14,0,0,1-5,3.59,17,17,0,0,1-6.9,1.32A16.23,16.23,0,0,1,213.7,79a16,16,0,0,1-5.21-3.61,16.36,16.36,0,0,1-3.43-5.45,19.89,19.89,0,0,1,0-13.88,17.23,17.23,0,0,1,3.44-5.53,15.85,15.85,0,0,1,5.2-3.64,16.19,16.19,0,0,1,6.59-1.32,16.6,16.6,0,0,1,6.88,1.36,14.75,14.75,0,0,1,5,3.65,16.33,16.33,0,0,1,3.15,5.49A21,21,0,0,1,236.46,63Z"/></g><path class="cls-2" d="M57.57,11.67a25,25,0,0,0-8.75-4.06A42.91,42.91,0,0,0,37.93,6.32H30.4A15.87,15.87,0,0,0,14.55,22.17V75.45a10,10,0,0,0,10,10h2.4V50.88H37.72a42.19,42.19,0,0,0,11-1.34,25.79,25.79,0,0,0,8.79-4.11,19.48,19.48,0,0,0,5.86-7.06,22.1,22.1,0,0,0,2.08-9.82,22.6,22.6,0,0,0-2-9.8A19,19,0,0,0,57.57,11.67ZM53.05,28.55c0,3.64-1.19,6.31-3.65,8.15-2.64,2-6.71,3-12.1,3H26.9V23.14a5.52,5.52,0,0,1,5.51-5.51H37.3c5.23,0,9.28.94,12,2.79C51.84,22.09,53.05,24.75,53.05,28.55Z"/><path class="cls-2" d="M107.93,72a20.9,20.9,0,0,1-2.17,1.57,16.33,16.33,0,0,1-14.38,1,15.94,15.94,0,0,1-4.93-3.33,15.24,15.24,0,0,1-3.26-4.89,16.92,16.92,0,0,1-1-3.6h27.37a12.29,12.29,0,0,0,11.26-7.3,11.47,11.47,0,0,0,.29-8.68,25.14,25.14,0,0,0-4.93-8.53A23.38,23.38,0,0,0,108,32.39a27.41,27.41,0,0,0-11.15-2.15,26.69,26.69,0,0,0-19.35,8.07,27.55,27.55,0,0,0-5.75,9,29.9,29.9,0,0,0-2.06,11.17,29.24,29.24,0,0,0,2.12,11.2,28.1,28.1,0,0,0,5.8,8.94,26.21,26.21,0,0,0,8.83,6,28.61,28.61,0,0,0,11,2.12A29.55,29.55,0,0,0,109.83,84a29,29,0,0,0,10.59-8.66l1.5-1.89L120,72A9.68,9.68,0,0,0,107.93,72ZM82.42,52.27a14.44,14.44,0,0,1,.94-2.6,15.29,15.29,0,0,1,7.8-7.53A14.22,14.22,0,0,1,96.82,41c4.44,0,7.72,1.24,10,3.78a14.15,14.15,0,0,1,3.23,6,1.12,1.12,0,0,1-.21,1,1.3,1.3,0,0,1-1,.52Z"/><path class="cls-2" d="M181.92,38.43a26.32,26.32,0,0,0-8.77-6,28.86,28.86,0,0,0-11.38-2.19A25.88,25.88,0,0,0,150.32,33a31.87,31.87,0,0,0-4.93,3.25V10.82a9.55,9.55,0,0,0-9.54-9.54h-2.4V61a26.57,26.57,0,0,0,15.59,23.12,31.92,31.92,0,0,0,12.72,2.52,28.86,28.86,0,0,0,11.38-2.18,26.2,26.2,0,0,0,8.77-6,27.17,27.17,0,0,0,5.64-9,31.53,31.53,0,0,0,0-22.1A27.38,27.38,0,0,0,181.92,38.43Zm-4.09,20a21.24,21.24,0,0,1-1.12,6.93,16.35,16.35,0,0,1-3.16,5.49,14.22,14.22,0,0,1-5,3.59,17.24,17.24,0,0,1-6.91,1.32,16.11,16.11,0,0,1-11.8-4.93,16.57,16.57,0,0,1-3.43-5.46,19.89,19.89,0,0,1,0-13.88A17.15,17.15,0,0,1,149.88,46a15.73,15.73,0,0,1,5.19-3.65A16.4,16.4,0,0,1,161.66,41a16.56,16.56,0,0,1,6.88,1.36,14.88,14.88,0,0,1,5,3.65,16.5,16.5,0,0,1,3.16,5.5A21.23,21.23,0,0,1,177.83,58.45Z"/><path class="cls-2" d="M249.71,38.43a26.32,26.32,0,0,0-8.77-6,28.86,28.86,0,0,0-11.38-2.19A25.88,25.88,0,0,0,218.11,33a31.16,31.16,0,0,0-4.93,3.25V10.82a9.55,9.55,0,0,0-9.54-9.54h-2.4V61a26.57,26.57,0,0,0,15.59,23.12,32,32,0,0,0,12.72,2.52,28.86,28.86,0,0,0,11.38-2.18,26.2,26.2,0,0,0,8.77-6,27.17,27.17,0,0,0,5.64-9,31.53,31.53,0,0,0,0-22.1A27.38,27.38,0,0,0,249.71,38.43Zm-4.09,20a21.24,21.24,0,0,1-1.12,6.93,16.35,16.35,0,0,1-3.16,5.49,14.22,14.22,0,0,1-5,3.59,17.24,17.24,0,0,1-6.91,1.32,16.11,16.11,0,0,1-11.8-4.93,16.57,16.57,0,0,1-3.43-5.46,19.89,19.89,0,0,1,0-13.88A17.15,17.15,0,0,1,217.67,46a15.73,15.73,0,0,1,5.19-3.65A16.4,16.4,0,0,1,229.45,41a16.56,16.56,0,0,1,6.88,1.36,14.88,14.88,0,0,1,5,3.65,16.3,16.3,0,0,1,3.16,5.5A21.14,21.14,0,0,1,245.62,58.45Z"/><path class="cls-2" d="M271.42,1.28H269V75.87a9.54,9.54,0,0,0,9.54,9.53H281V10.82A9.55,9.55,0,0,0,271.42,1.28Z"/><path class="cls-2" d="M331.45,58c-3.1-2.54-7.65-4.41-13.9-5.69a25.32,25.32,0,0,1-8.1-2.75,3.57,3.57,0,0,1-1.73-3.29,4.25,4.25,0,0,1,.54-2.22,4.92,4.92,0,0,1,1.61-1.63,7.56,7.56,0,0,1,2.58-1A15.07,15.07,0,0,1,315.7,41a11.34,11.34,0,0,1,6.05,1.6,10.51,10.51,0,0,1,.95.64,10,10,0,0,0,12,.11l1.7-1.27-1.06-1.84A18.51,18.51,0,0,0,327,32.78a25.44,25.44,0,0,0-11-2.54,27.77,27.77,0,0,0-7.13.92,20.09,20.09,0,0,0-6.37,2.93,15.25,15.25,0,0,0-4.66,5.21,15.64,15.64,0,0,0-1.76,7.61,13.6,13.6,0,0,0,1.69,7,14.87,14.87,0,0,0,4.12,4.55,18.3,18.3,0,0,0,5.25,2.66c1.7.54,3.33,1,4.84,1.36a46.21,46.21,0,0,1,10.2,3.41,3.88,3.88,0,0,1,2.43,3.69,5.56,5.56,0,0,1-.62,2.84,5.49,5.49,0,0,1-1.77,1.88,7.7,7.7,0,0,1-2.81,1.11,20,20,0,0,1-3.94.38,12.89,12.89,0,0,1-6.84-1.87,16.77,16.77,0,0,1-1.52-1,10.31,10.31,0,0,0-12.37-.1l-1.85,1.37,1.29,1.91a22.46,22.46,0,0,0,9.63,8.08,29,29,0,0,0,11.77,2.51,31,31,0,0,0,7.22-.85,19.62,19.62,0,0,0,6.75-3,16,16,0,0,0,6.9-13.77A13.65,13.65,0,0,0,331.45,58Z"/><path class="cls-2" d="M384.23,42.28v-2.4a8.4,8.4,0,0,0-8.39-8.38h-5.46V27.19a9.55,9.55,0,0,0-9.54-9.54h-2.4V31.5H348.26v2.4a8.39,8.39,0,0,0,8.39,8.38h1.79V70.52a17.5,17.5,0,0,0,1.44,7.64A13.36,13.36,0,0,0,363.67,83a13,13,0,0,0,5,2.43,20.23,20.23,0,0,0,4.75.59,18,18,0,0,0,2.13-.18,9.65,9.65,0,0,0,8.35-10l-.19-3.67-3.28,1.65a13.27,13.27,0,0,1-2.62,1,9.28,9.28,0,0,1-4.82.06,2.76,2.76,0,0,1-1.28-.74,4.19,4.19,0,0,1-.92-1.76,14.22,14.22,0,0,1-.42-3.84V42.28Z"/></svg>