<?xml version="1.0" encoding="utf-8"?>
<!-- Generator: Adobe Illustrator 26.2.1, SVG Export Plug-In . SVG Version: 6.00 Build 0)  -->
<svg version="1.1" id="Layer_1" xmlns="http://www.w3.org/2000/svg" xmlns:xlink="http://www.w3.org/1999/xlink" x="0px" y="0px"
	 viewBox="0 0 68 64.1" style="enable-background:new 0 0 68 64.1;" xml:space="preserve">
<style type="text/css">
	.st0{clip-path:url(#SVGID_00000080186349273205702940000011209429459783267739_);}
	.st1{fill:#438083;}
</style>
<g>
	<defs>
		<rect id="SVGID_1_" x="6.7" y="8" width="54.6" height="48"/>
	</defs>
	<clipPath id="SVGID_00000103949511561598815560000014481333351729879704_">
		<use xlink:href="#SVGID_1_"  style="overflow:visible;"/>
	</clipPath>
	<g id="Group_35" transform="translate(0)" style="clip-path:url(#SVGID_00000103949511561598815560000014481333351729879704_);">
		<path id="Path_42" class="st1" d="M18.5,8.6c4.8-1.2,9.8-0.5,14.6,0.2l12.7,1.8c2,0.2,3.9,0.7,5.7,1.5c1.7,1,3.1,2.3,4.2,3.8
			c5.6,7.1,7.7,17.7,2.8,25.3c-3.5,5.5-9.9,8.4-15.9,10.9c-7.3,3-15.8,5.8-23,2.5c-4.8-2.2-8.1-6.8-9.9-11.8S7.4,32.5,7,27.3
			C6.6,23,6.2,19.3,8.7,15.7C11.2,12.2,14.2,9.7,18.5,8.6"/>
	</g>
</g>
</svg>
