<svg id="Layer_1" data-name="Layer 1" xmlns="http://www.w3.org/2000/svg" viewBox="0 0 202.37 178.21"><defs><style>.cls-1{fill:#68a9ae;}.cls-2,.cls-3{fill:#fff;}.cls-2{opacity:0.5;}</style></defs><path class="cls-1" d="M45,4.5C62.23.32,80.27,2.76,97.82,5.23l45.84,6.43c7.12,1,14.4,2.05,20.76,5.39,6.12,3.22,11,8.37,15.28,13.81,20.18,25.73,28,63.86,10.27,91.35-12.8,19.86-35.7,30.39-57.56,39.35-26.56,10.9-57,21-83.13,9C32,162.54,20,145.85,13.41,128S5.16,90.84,3.49,71.87C2.14,56.42.89,43.15,9.88,30.2,18.7,17.48,29.66,8.23,45,4.5Z"/><path class="cls-2" d="M120.5,48.05a32.75,32.75,0,0,0-11.43-5.31,56.2,56.2,0,0,0-14.22-1.68l-7.29-3.69s-9,4.47-11.79,5.87A20.72,20.72,0,0,0,64.32,61.76v69.57a13,13,0,0,0,13,13h3.13l12-5.93-12-39.15H94.58a55.22,55.22,0,0,0,14.31-1.75,36.27,36.27,0,0,0,7.62-3c1.38-.73,10.66-5.29,10.66-5.29s.34-2.6.85-6.35c.54-4,2.71-8,2.71-12.82a29.5,29.5,0,0,0-2.63-12.8A24.8,24.8,0,0,0,120.5,48.05Zm-5.9,22c0,4.75-1.56,8.23-4.77,10.64-3.45,2.59-8.76,3.9-15.8,3.9H80.45V63a7.21,7.21,0,0,1,7.2-7.2H94c6.82,0,12.11,1.23,15.72,3.65C113,61.66,114.6,65.13,114.6,70.09Z"/><path class="cls-3" d="M132.45,42.12A32.89,32.89,0,0,0,121,36.8a56.72,56.72,0,0,0-14.22-1.68H97a20.73,20.73,0,0,0-20.7,20.7V125.4a13,13,0,0,0,13,13h3.14V93.32h14.12a55.3,55.3,0,0,0,14.32-1.75,33.81,33.81,0,0,0,11.47-5.38A25.42,25.42,0,0,0,140,77a28.91,28.91,0,0,0,2.72-12.83,29.46,29.46,0,0,0-2.64-12.79A24.71,24.71,0,0,0,132.45,42.12Zm-5.9,22c0,4.76-1.56,8.24-4.77,10.65-3.45,2.58-8.76,3.89-15.79,3.89H92.41V57.09a7.2,7.2,0,0,1,7.19-7.2H106c6.82,0,12.1,1.23,15.72,3.65C125,55.72,126.55,59.2,126.55,64.15Z"/></svg>