<svg xmlns="http://www.w3.org/2000/svg" xmlns:xlink="http://www.w3.org/1999/xlink" width="22.105" height="20" viewBox="0 0 22.105 20">
  <defs>
    <clipPath id="clip-path">
      <rect id="Rectangle_47" data-name="Rectangle 47" width="22.105" height="20" fill="none"/>
    </clipPath>
    <clipPath id="clip-path-2">
      <rect id="Rectangle_191" data-name="Rectangle 191" width="12.521" height="12.817" fill="#fff"/>
    </clipPath>
  </defs>
  <g id="Group_1525" data-name="Group 1525" transform="translate(-269.898 -8.023)">
    <g id="Group_1524" data-name="Group 1524">
      <g id="Pebble_-_Fill_-_Teal" data-name="Pebble - Fill - Teal" transform="translate(269.898 8.023)">
        <g id="Group_68" data-name="Group 68" clip-path="url(#clip-path)">
          <path id="Path_68" data-name="Path 68" d="M4.758.259a15.419,15.419,0,0,1,5.917.084l5.137.741a6.892,6.892,0,0,1,2.325.62,5.592,5.592,0,0,1,1.712,1.59C22.111,6.256,22.984,10.645,21,13.81c-1.434,2.286-4,3.5-6.448,4.53-2.977,1.255-6.393,2.416-9.315,1.031a8.393,8.393,0,0,1-4.019-4.9A25.7,25.7,0,0,1,.106,8.014c-.152-1.778-.291-3.306.716-4.8A6.617,6.617,0,0,1,4.758.259" transform="translate(0 0.001)" fill="#68a9ae"/>
        </g>
      </g>
      <g id="Group_247" data-name="Group 247" transform="translate(272.918 11.023)">
        <g id="Group_245" data-name="Group 245" transform="translate(0 0)" clip-path="url(#clip-path-2)">
          <path id="Path_114" data-name="Path 114" d="M4.61,1.344A3.266,3.266,0,1,1,1.344,4.61,3.27,3.27,0,0,1,4.61,1.344M4.61,0a4.611,4.611,0,1,0,4.61,4.61A4.61,4.61,0,0,0,4.61,0" transform="translate(0 0)" fill="#fff"/>
          <path id="Path_115" data-name="Path 115" d="M15.354,14.869,10.245,9.76a3.265,3.265,0,0,1-1,.881c.012.014.017.033.031.046L14.4,15.819a.672.672,0,0,0,.95-.95" transform="translate(-3.029 -3.2)" fill="#fff"/>
        </g>
      </g>
    </g>
  </g>
</svg>
